<?xml version="1.0" encoding="utf-8"?>
<!-- Generator: Adobe Illustrator 22.0.1, SVG Export Plug-In . SVG Version: 6.00 Build 0)  -->
<svg version="1.1" id="Слой_1" xmlns="http://www.w3.org/2000/svg" xmlns:xlink="http://www.w3.org/1999/xlink" x="0px" y="0px"
	 viewBox="0 0 256.2 256.2" style="enable-background:new 0 0 256.2 256.2;" xml:space="preserve">
<style type="text/css">
	.st0{fill:#20D3AB;}
	.st1{fill:#4E9EFF;}
	.st2{fill:#2A97F2;}
	.st3{fill:#32E0AD;}
	.st4{fill:none;stroke:#4E9EFF;stroke-width:4;stroke-linecap:round;stroke-miterlimit:10;}
	.st5{opacity:0.1;}
	.st6{fill:#FFFFFF;}
</style>
<g>
	<path class="st0" d="M128.5,69.6L73,116.3v72.5c0,11.2,9.1,20.3,20.3,20.3h45.2h45.2c11.2,0,20.3-9.1,20.3-20.3v-72.5l-55.5-46.7
		C142.7,64.7,134.3,64.7,128.5,69.6z"/>
	<path class="st1" d="M191.6,186.4H85.5c-1.5,0-2.7-1.2-2.7-2.7V77.5c0-1.5,1.2-2.7,2.7-2.7h106.1c1.5,0,2.7,1.2,2.7,2.7v106.1
		C194.3,185.1,193.1,186.4,191.6,186.4z"/>
	<polygon class="st2" points="138.5,159.4 82.8,117.9 82.8,125.4 83.9,132.1 101.1,159.4 121.7,174.4 138.5,176.1 155.3,174.4 
		175.8,159.4 193.1,132.1 194.1,125.4 194.1,117.9 	"/>
	<g>
		<path class="st0" d="M72.9,116.9h8.3l57.3,52.7v39.7H83.6c-5.9,0-10.7-4.8-10.7-10.7V116.9z"/>
		<path class="st0" d="M204.2,116.9h-8.3l-57.3,52.7v39.7h54.9c5.9,0,10.7-4.8,10.7-10.7V116.9z"/>
		<path class="st3" d="M134,152.8l-61.1,44.3v1.8c0,5.7,4.6,10.2,10.2,10.2h55.4H194c5.7,0,10.2-4.6,10.2-10.2v-1.8l-61.1-44.3
			C140.4,150.8,136.7,150.8,134,152.8z"/>
	</g>
	<g>
		<g>
			<line class="st4" x1="138.5" y1="31" x2="138.5" y2="44.5"/>
			<line class="st4" x1="112.3" y1="39.6" x2="119.1" y2="51.2"/>
			<line class="st4" x1="93.9" y1="60.3" x2="106.2" y2="65.9"/>
		</g>
		<g>
			<line class="st4" x1="138.5" y1="30.8" x2="138.5" y2="44.3"/>
			<line class="st4" x1="164.7" y1="39.5" x2="157.8" y2="51.1"/>
			<line class="st4" x1="183.1" y1="60.2" x2="170.8" y2="65.8"/>
		</g>
	</g>
	<g class="st5">
		<g>
			<g>
				<circle class="st4" cx="25" cy="91" r="6.8"/>
			</g>
			<g>
				<circle class="st4" cx="45.8" cy="136" r="2.8"/>
			</g>
			<g>
				<g>
					<line class="st4" x1="13.1" y1="166.2" x2="13.1" y2="180.4"/>
				</g>
				<g>
					<line class="st4" x1="6" y1="173.3" x2="20.2" y2="173.3"/>
				</g>
			</g>
			<g>
				<g>
					<line class="st4" x1="69.8" y1="55.3" x2="69.8" y2="65.3"/>
				</g>
				<g>
					<line class="st4" x1="64.8" y1="60.3" x2="74.8" y2="60.3"/>
				</g>
			</g>
			<g>
				<g>
					<line class="st4" x1="223.4" y1="128" x2="223.4" y2="144"/>
				</g>
				<g>
					<line class="st4" x1="215.4" y1="136" x2="231.4" y2="136"/>
				</g>
			</g>
			<g>
				<circle class="st4" cx="247.4" cy="172.5" r="2.8"/>
			</g>
			<g>
				<polygon class="st4" points="235.4,86.6 235.4,79.4 235.4,72.1 241.7,75.7 248,79.4 241.7,83 				"/>
			</g>
		</g>
	</g>
	<rect x="105.3" y="91.4" class="st6" width="66.6" height="7"/>
	<rect x="105.3" y="105.9" class="st6" width="66.6" height="7"/>
	<rect x="105.3" y="120.4" class="st6" width="66.6" height="7"/>
</g>
</svg>
