<svg xmlns="http://www.w3.org/2000/svg" xmlns:xlink="http://www.w3.org/1999/xlink" width="204" height="149" version="1.1" viewBox="0 0 204 149"><title>check</title><desc>Created with Sketch.</desc><g id="Page-1" fill="none" fill-rule="evenodd" stroke="none" stroke-width="1"><g id="check" transform="translate(2.000000, 2.000000)"><path id="Shape" fill="#20D3AB" fill-rule="nonzero" d="M100,32.3265306 L54.6938776,70.4489796 L54.6938776,129.632653 C54.6938776,138.77551 62.122449,146.204082 71.2653061,146.204082 L108.163265,146.204082 L145.061224,146.204082 C154.204082,146.204082 161.632653,138.77551 161.632653,129.632653 L161.632653,70.4489796 L116.326531,32.3265306 C111.591837,28.3265306 104.734694,28.3265306 100,32.3265306 Z"/><path id="Shape" fill="#4E9EFF" fill-rule="nonzero" d="M151.510204,127.673469 L64.8979592,127.673469 C63.6734694,127.673469 62.6938776,126.693878 62.6938776,125.469388 L62.6938776,38.7755102 C62.6938776,37.5510204 63.6734694,36.5714286 64.8979592,36.5714286 L151.510204,36.5714286 C152.734694,36.5714286 153.714286,37.5510204 153.714286,38.7755102 L153.714286,125.387755 C153.714286,126.612245 152.734694,127.673469 151.510204,127.673469 Z"/><polygon id="Shape" fill="#2A97F2" fill-rule="nonzero" points="108.163 105.633 62.694 71.755 62.694 77.878 63.592 83.347 77.633 105.633 94.449 117.878 108.163 119.265 121.878 117.878 138.612 105.633 152.735 83.347 153.551 77.878 153.551 71.755"/><g id="Group" fill-rule="nonzero" transform="translate(53.877551, 70.204082)"><path id="Shape" fill="#20D3AB" d="M0.734693878,0.734693878 L7.51020408,0.734693878 L54.2857143,43.755102 L54.2857143,76.1632653 L9.46938776,76.1632653 C4.65306122,76.1632653 0.734693878,72.244898 0.734693878,67.4285714 L0.734693878,0.734693878 Z"/><path id="Shape" fill="#20D3AB" d="M107.918367,0.734693878 L101.142857,0.734693878 L54.3673469,43.755102 L54.3673469,76.1632653 L99.1836735,76.1632653 C104,76.1632653 107.918367,72.244898 107.918367,67.4285714 L107.918367,0.734693878 Z"/><path id="Shape" fill="#32E0AD" d="M50.6122449,30.0408163 L0.734693878,66.2040816 L0.734693878,67.6734694 C0.734693878,72.3265306 4.48979592,76 9.06122449,76 L54.2857143,76 L99.5918367,76 C104.244898,76 107.918367,72.244898 107.918367,67.6734694 L107.918367,66.2040816 L58.0408163,30.0408163 C55.8367347,28.4081633 52.8163265,28.4081633 50.6122449,30.0408163 Z"/></g><g id="Group" stroke="#4E9EFF" stroke-linecap="round" stroke-width="4" transform="translate(71.020408, 0.000000)"><g id="Shape"><path d="M37.1428571,0 L37.1428571,11.0204082" transform="translate(0.000000, 0.816327)"/><path d="M15.755102,7.02040816 L21.3061224,16.4897959" transform="translate(0.000000, 0.816327)"/><path d="M0.734693878,23.9183673 L10.7755102,28.4897959" transform="translate(0.000000, 0.816327)"/></g><g id="Shape"><path d="M0.408163265,0.653061224 L0.408163265,11.6734694" transform="translate(36.734694, 0.000000)"/><path d="M21.7959184,7.75510204 L16.1632653,17.2244898" transform="translate(36.734694, 0.000000)"/><path d="M36.8163265,24.6530612 L26.7755102,29.2244898" transform="translate(36.734694, 0.000000)"/></g></g><g id="Group" stroke="#4E9EFF" stroke-linecap="round" stroke-width="4" opacity=".1"><g transform="translate(0.000000, 20.408163)"><circle id="Oval" cx="15.51" cy="29.388" r="5.551"/><circle id="Oval" cx="32.49" cy="66.122" r="2.286"/><g id="Shape"><path d="M5.79591837,0.163265306 L5.79591837,11.755102" transform="translate(0.000000, 90.612245)"/><path d="M0,5.95918367 L11.5918367,5.95918367" transform="translate(0.000000, 90.612245)"/></g><g id="Shape"><path d="M4.73469388,0.244897959 L4.73469388,8.40816327" transform="translate(47.346939, 0.000000)"/><path d="M0.653061224,4.32653061 L8.81632653,4.32653061" transform="translate(47.346939, 0.000000)"/></g><g id="Shape"><path d="M6.85714286,0 L6.85714286,13.0612245" transform="translate(170.612245, 59.591837)"/><path d="M0.326530612,6.53061224 L13.3877551,6.53061224" transform="translate(170.612245, 59.591837)"/></g><circle id="Oval" cx="197.061" cy="95.918" r="2.286"/><polygon id="Shape" points="187.265 25.796 187.265 19.918 187.265 13.959 192.408 16.898 197.551 19.918 192.408 22.857"/></g></g><rect id="Rectangle-path" width="54.367" height="5.714" x="81.061" y="50.122" fill="#FFF" fill-rule="nonzero"/><rect id="Rectangle-path" width="54.367" height="5.714" x="81.061" y="61.959" fill="#FFF" fill-rule="nonzero"/><rect id="Rectangle-path" width="54.367" height="5.714" x="81.061" y="73.796" fill="#FFF" fill-rule="nonzero"/></g></g></svg>